# xmcd
#
# Track frame offsets: 
#        150
#        10366
#        28063
#        41382
#        55582
#        73118
#        89386
#        108919
#        125268
#        140043
#        157883
#        179491
#        196342
#        210548
#
# Disc length: 3006 seconds
#
# Revision: 1
# Processed by: cddbd v1.5.2PL0 Copyright (c) Steve Scherf et al.
# Submitted via: ExactAudioCopy v1.0b4
#
DISCID=bd0bbc0e
DTITLE=JB And The Moonshine Band - Beer For Breakfast
DYEAR=2012
DGENRE=Country
TTITLE0=Beer For Breakfast
TTITLE1=Kiss Me That Way
TTITLE2=No Better Than This
TTITLE3=Edge Of The Road
TTITLE4=More Like My Dog
TTITLE5=Hell To Pay
TTITLE6=Smith County Line
TTITLE7=Ride
TTITLE8=The Only Drug
TTITLE9=Black And White
TTITLE10=I Don't Care
TTITLE11=Yes
TTITLE12=I'm Down (LEX Mix)
TTITLE13=Perfect Girl (Moonshine Mix)
EXTD=YEAR: 2012
EXTT0=
EXTT1=
EXTT2=
EXTT3=
EXTT4=
EXTT5=
EXTT6=
EXTT7=
EXTT8=
EXTT9=
EXTT10=
EXTT11=
EXTT12=
EXTT13=
PLAYORDER=
